<mxfile host="drawio-plugin" modified="2023-09-13T19:10:41.693Z" agent="5.0 (Windows NT 10.0; Win64; x64) AppleWebKit/537.36 (KHTML, like Gecko) Chrome/111.0.0.0 Safari/537.36" etag="6aNb5O4KKpvZQFWLl6Oq" version="20.5.3" type="embed"><diagram id="I0u18od7jJSmsaNMgFLr" name="DogOwner LLD"><mxGraphModel dx="401" dy="432" grid="1" gridSize="10" guides="1" tooltips="1" connect="1" arrows="1" fold="1" page="1" pageScale="1" pageWidth="850" pageHeight="1100" math="0" shadow="0"><root><mxCell id="0"/><mxCell id="1" parent="0"/><mxCell id="2" value="DogOwner" style="html=1;" parent="1" vertex="1"><mxGeometry x="370" y="230" width="110" height="50" as="geometry"/></mxCell><mxCell id="3" value="Dog" style="html=1;" parent="1" vertex="1"><mxGeometry x="230" y="510" width="110" height="50" as="geometry"/></mxCell><mxCell id="4" value="«interface»&lt;br&gt;&lt;b&gt;IDog&lt;br&gt;&lt;/b&gt;" style="html=1;" parent="1" vertex="1"><mxGeometry x="230" y="390" width="110" height="50" as="geometry"/></mxCell><mxCell id="5" value="" style="endArrow=block;dashed=1;endFill=0;endSize=12;html=1;rounded=0;entryX=0.5;entryY=1;entryDx=0;entryDy=0;exitX=0.5;exitY=0;exitDx=0;exitDy=0;" parent="1" source="3" target="4" edge="1"><mxGeometry width="160" relative="1" as="geometry"><mxPoint x="460" y="610" as="sourcePoint"/><mxPoint x="620" y="610" as="targetPoint"/></mxGeometry></mxCell><mxCell id="6" value="" style="endArrow=diamondThin;endFill=0;endSize=24;html=1;rounded=0;entryX=0;entryY=0.5;entryDx=0;entryDy=0;exitX=0.5;exitY=0;exitDx=0;exitDy=0;edgeStyle=orthogonalEdgeStyle;" parent="1" source="4" target="2" edge="1"><mxGeometry width="160" relative="1" as="geometry"><mxPoint x="300" y="350" as="sourcePoint"/><mxPoint x="460" y="350" as="targetPoint"/></mxGeometry></mxCell><mxCell id="9" value="1" style="edgeLabel;html=1;align=center;verticalAlign=middle;resizable=0;points=[];" vertex="1" connectable="0" parent="6"><mxGeometry x="0.7182" y="-1" relative="1" as="geometry"><mxPoint x="-4" y="-1" as="offset"/></mxGeometry></mxCell><mxCell id="10" value="0..*" style="edgeLabel;html=1;align=center;verticalAlign=middle;resizable=0;points=[];" vertex="1" connectable="0" parent="6"><mxGeometry x="-0.8182" y="2" relative="1" as="geometry"><mxPoint x="2" as="offset"/></mxGeometry></mxCell><mxCell id="7" value="Food" style="html=1;" parent="1" vertex="1"><mxGeometry x="520" y="390" width="110" height="50" as="geometry"/></mxCell><mxCell id="8" value="" style="endArrow=diamondThin;endFill=0;endSize=24;html=1;rounded=0;entryX=1;entryY=0.5;entryDx=0;entryDy=0;exitX=0.5;exitY=0;exitDx=0;exitDy=0;edgeStyle=orthogonalEdgeStyle;" parent="1" source="7" target="2" edge="1"><mxGeometry width="160" relative="1" as="geometry"><mxPoint x="550" y="310" as="sourcePoint"/><mxPoint x="710" y="310" as="targetPoint"/></mxGeometry></mxCell><mxCell id="12" value="1" style="edgeLabel;html=1;align=center;verticalAlign=middle;resizable=0;points=[];" vertex="1" connectable="0" parent="8"><mxGeometry x="0.6406" relative="1" as="geometry"><mxPoint as="offset"/></mxGeometry></mxCell><mxCell id="13" value="0..*" style="edgeLabel;html=1;align=center;verticalAlign=middle;resizable=0;points=[];" vertex="1" connectable="0" parent="8"><mxGeometry x="-0.8037" y="1" relative="1" as="geometry"><mxPoint as="offset"/></mxGeometry></mxCell></root></mxGraphModel></diagram></mxfile>